<?xml version="1.0" encoding="utf-8"?>
<!DOCTYPE svg PUBLIC "-//W3C//DTD SVG 20010904//EN" "http://www.w3.org/TR/2001/REC-SVG-20010904/DTD/svg10.dtd">
<svg version="1.0" xmlns="http://www.w3.org/2000/svg" width="694pt" height="629pt" viewBox="0 0 694 629" style="" preserveAspectRatio="xMidYMid meet">
<g fill="#0294B7FE">
<path d="M 292.951 202.362 C 292.649 202.676 289.172 203.176 285.225 203.475 C 277.377 204.068 264.850 206.475 262.184 207.902 C 261.258 208.397 260.050 208.820 259.500 208.841 C 257.019 208.937 250.000 211.344 250.000 212.099 C 250.000 212.560 249.325 212.678 248.500 212.362 C 247.675 212.045 247.000 212.284 247.000 212.893 C 247.000 213.502 246.663 213.909 246.250 213.797 C 244.949 213.445 238.000 216.362 238.000 217.260 C 238.000 217.732 237.586 217.862 237.081 217.550 C 236.575 217.237 235.450 217.693 234.581 218.562 C 233.711 219.432 232.993 219.773 232.985 219.321 C 232.976 218.870 232.639 219.002 232.235 219.616 C 231.831 220.229 229.014 221.902 225.975 223.332 C 222.936 224.762 219.467 226.848 218.267 227.966 C 217.066 229.085 215.615 230.000 215.042 230.000 C 214.469 230.000 214.000 230.450 214.000 231.000 C 214.000 231.550 213.373 232.000 212.607 232.000 C 211.841 232.000 210.953 232.679 210.635 233.509 C 210.316 234.339 209.697 234.902 209.258 234.759 C 208.819 234.617 207.794 235.043 206.980 235.706 C 206.166 236.369 203.968 238.169 202.096 239.706 C 196.680 244.152 175.000 266.479 175.000 267.611 C 175.000 267.877 173.809 269.199 172.354 270.548 C 170.899 271.896 170.111 273.014 170.604 273.030 C 171.097 273.047 170.713 273.519 169.750 274.080 C 168.788 274.641 168.000 275.752 168.000 276.550 C 168.000 277.347 167.550 278.000 167.000 278.000 C 166.450 278.000 166.000 278.675 166.000 279.500 C 166.000 280.325 165.523 281.000 164.941 281.000 C 164.359 281.000 164.162 281.453 164.504 282.007 C 164.847 282.561 164.464 283.268 163.655 283.579 C 162.845 283.890 161.637 285.461 160.970 287.072 C 160.303 288.682 159.335 290.000 158.820 290.000 C 158.304 290.000 158.136 290.412 158.447 290.915 C 158.758 291.418 158.535 291.988 157.952 292.183 C 157.368 292.377 156.791 293.222 156.668 294.059 C 156.545 294.897 155.359 297.364 154.034 299.541 C 152.708 301.719 151.708 303.838 151.812 304.250 C 151.915 304.663 151.550 305.000 151.000 305.000 C 150.450 305.000 150.096 305.338 150.212 305.750 C 150.329 306.163 149.895 307.453 149.248 308.619 C 148.600 309.784 148.355 311.021 148.702 311.369 C 149.049 311.716 148.844 312.000 148.246 312.000 C 147.648 312.000 146.839 313.456 146.448 315.235 C 146.057 317.015 145.070 319.490 144.254 320.735 C 143.438 321.981 143.102 323.000 143.507 323.000 C 143.913 323.000 143.723 323.629 143.085 324.398 C 142.447 325.167 141.741 326.629 141.517 327.648 C 141.293 328.667 140.664 330.971 140.119 332.768 C 139.042 336.324 139.000 336.521 139.000 338.000 C 139.000 339.767 137.005 339.065 136.870 337.250 C 136.798 336.288 136.629 337.525 136.494 340.000 C 136.359 342.475 135.299 348.775 134.140 354.000 C 132.980 359.225 131.993 365.075 131.945 367.000 C 131.875 369.872 131.705 370.141 131.000 368.500 C 130.527 367.400 129.998 359.075 129.823 350.000 C 129.615 339.191 129.556 340.571 129.652 354.000 C 129.732 365.275 130.033 379.450 130.321 385.500 C 130.609 391.550 131.079 401.498 131.367 407.607 C 133.359 449.974 151.341 492.625 180.226 523.498 C 184.601 528.174 187.915 532.056 187.590 532.125 C 187.266 532.194 187.352 532.306 187.782 532.375 C 188.211 532.444 192.036 535.425 196.281 539.000 C 200.526 542.575 202.509 544.600 200.687 543.500 C 195.778 540.536 196.153 541.791 201.169 545.112 C 203.780 546.840 205.514 547.487 205.535 546.740 C 205.555 546.058 206.214 546.625 207.000 548.000 C 207.873 549.527 208.453 549.916 208.491 549.000 C 208.538 547.857 208.806 547.938 209.616 549.340 C 210.201 550.351 211.089 551.185 211.590 551.191 C 212.090 551.198 215.650 553.051 219.500 555.308 C 243.227 569.219 279.698 581.116 312.418 585.618 C 325.766 587.455 357.750 587.646 373.500 585.984 C 405.142 582.644 441.792 570.591 470.500 554.083 C 474.350 551.869 478.175 549.740 479.000 549.352 C 479.825 548.964 480.725 548.381 481.000 548.056 C 481.275 547.732 484.739 545.299 488.697 542.650 C 492.656 540.000 496.423 537.195 497.070 536.416 C 497.716 535.637 498.659 535.000 499.165 535.000 C 500.084 535.000 500.492 534.694 505.850 530.000 C 507.419 528.625 510.411 526.150 512.500 524.500 C 518.661 519.632 537.476 500.412 535.031 501.483 C 533.797 502.024 532.160 503.361 531.394 504.455 C 530.627 505.550 530.000 506.050 530.000 505.568 C 530.000 505.085 529.128 505.479 528.063 506.443 C 526.974 507.428 525.593 507.866 524.909 507.443 C 524.164 506.983 523.949 507.108 524.355 507.765 C 524.747 508.400 521.399 510.910 516.166 513.905 C 471.206 539.634 417.215 545.430 365.000 530.133 C 350.142 525.780 328.643 516.387 329.684 514.702 C 330.028 514.146 329.847 513.977 329.282 514.326 C 327.030 515.718 294.473 493.662 295.744 491.605 C 296.055 491.102 295.844 490.978 295.277 491.329 C 294.709 491.680 289.096 486.666 282.805 480.187 C 250.850 447.280 234.174 404.709 236.384 361.680 C 238.084 328.578 249.868 299.358 269.887 278.610 C 277.892 270.314 294.373 258.546 296.724 259.448 C 297.483 259.739 297.864 259.589 297.571 259.115 C 297.278 258.640 300.742 257.002 305.269 255.474 C 316.097 251.819 333.064 250.923 344.263 253.415 C 363.515 257.698 380.991 271.064 389.466 287.985 C 392.270 293.584 394.377 299.956 393.661 300.672 C 393.365 300.968 390.540 299.106 387.383 296.534 C 384.226 293.963 379.941 290.990 377.861 289.929 C 371.595 286.733 372.073 287.789 378.556 291.464 C 381.887 293.352 386.724 296.864 389.306 299.268 C 391.888 301.673 394.007 303.158 394.015 302.570 C 394.024 301.981 394.425 302.123 394.908 302.885 C 395.619 304.008 395.979 303.908 396.808 302.359 C 398.556 299.093 399.966 288.780 399.523 282.500 C 399.150 277.210 398.573 273.767 396.424 264.021 C 396.124 262.658 395.343 261.202 394.689 260.787 C 394.035 260.371 393.853 260.024 394.285 260.015 C 394.717 260.007 394.509 258.988 393.823 257.750 C 393.137 256.513 392.671 255.163 392.788 254.750 C 392.904 254.338 392.475 254.000 391.833 254.000 C 391.192 254.000 390.965 253.702 391.329 253.338 C 391.693 252.974 390.845 251.174 389.444 249.338 C 388.044 247.502 387.178 246.000 387.521 246.000 C 387.863 246.000 387.548 245.341 386.821 244.535 C 384.096 241.512 383.000 240.067 383.000 239.494 C 383.000 239.170 381.954 237.913 380.675 236.702 C 379.397 235.491 378.059 233.706 377.701 232.735 C 377.344 231.764 375.929 230.543 374.557 230.022 C 373.185 229.500 371.490 228.157 370.791 227.037 C 370.091 225.917 368.938 225.000 368.228 225.000 C 367.518 225.000 366.678 224.325 366.362 223.500 C 366.045 222.675 365.207 222.000 364.500 222.000 C 363.793 222.000 362.930 221.261 362.583 220.357 C 362.237 219.453 361.691 218.976 361.370 219.297 C 361.049 219.617 359.867 219.022 358.742 217.974 C 357.617 216.927 356.315 216.305 355.849 216.594 C 355.382 216.882 355.000 216.566 355.000 215.892 C 355.000 215.218 354.721 214.945 354.381 215.286 C 354.040 215.626 353.104 215.247 352.300 214.443 C 351.496 213.639 350.425 213.237 349.919 213.550 C 349.414 213.862 349.000 213.745 349.000 213.290 C 349.000 212.835 345.738 211.241 341.750 209.748 C 335.332 207.345 332.828 206.633 327.000 205.555 C 326.175 205.403 324.734 204.950 323.798 204.550 C 322.862 204.150 321.605 204.126 321.004 204.497 C 320.404 204.869 319.370 204.727 318.706 204.182 C 317.389 203.101 293.843 201.438 292.951 202.362 "/></g>
<g fill="#003468FE">
<path d="M 458.500 47.399 C 449.831 50.141 441.904 55.645 437.525 61.964 C 436.114 64.001 434.181 65.702 433.229 65.745 C 432.278 65.788 428.125 64.760 424.000 63.460 C 413.558 60.169 398.416 56.299 392.704 55.462 C 390.066 55.075 388.122 54.545 388.384 54.283 C 388.646 54.021 386.754 53.650 384.180 53.459 C 381.606 53.268 376.575 52.644 373.000 52.072 C 369.425 51.500 360.650 50.716 353.500 50.330 C 344.758 49.859 341.319 49.369 343.000 48.833 C 345.201 48.132 345.141 48.093 342.500 48.505 C 340.850 48.762 334.775 49.191 329.000 49.459 C 310.659 50.310 301.742 51.084 292.613 52.617 C 287.725 53.437 283.090 53.865 282.311 53.566 C 281.529 53.266 281.169 53.465 281.507 54.011 C 281.843 54.555 281.268 55.000 280.229 55.000 C 277.119 55.000 253.929 61.623 243.360 65.530 C 194.896 83.445 148.388 120.282 119.506 163.631 C 94.477 201.197 79.842 242.091 75.074 287.789 C 71.749 319.649 75.641 360.852 84.822 391.000 C 102.821 450.106 135.330 496.032 186.202 534.221 C 197.221 542.493 202.598 544.655 194.356 537.500 C 191.188 534.750 188.237 532.444 187.798 532.375 C 187.359 532.306 187.303 532.194 187.673 532.125 C 188.044 532.056 184.968 528.513 180.839 524.250 C 154.117 496.667 137.412 460.200 131.482 416.500 C 131.109 413.750 130.465 411.275 130.051 411.000 C 128.532 409.992 122.823 394.096 123.554 392.912 C 123.996 392.197 123.893 391.948 123.305 392.311 C 122.072 393.074 115.582 371.532 116.401 369.396 C 116.718 368.571 116.595 368.132 116.127 368.421 C 115.660 368.710 114.203 362.996 112.889 355.723 C 110.738 343.819 110.500 339.678 110.500 314.213 C 110.500 296.497 110.874 285.660 111.500 285.213 C 112.050 284.821 112.576 282.324 112.669 279.664 C 112.875 273.778 116.325 256.695 118.962 248.500 C 120.024 245.200 120.970 242.725 121.065 243.000 C 121.159 243.275 121.157 243.083 121.059 242.573 C 120.729 240.847 128.375 221.561 133.642 210.837 C 164.649 147.704 223.238 103.130 291.886 90.447 C 334.079 82.652 373.449 85.682 419.862 100.293 C 433.117 104.467 433.262 104.545 438.131 110.158 C 444.220 117.178 450.734 121.435 458.470 123.450 C 474.301 127.574 489.327 123.308 499.356 111.844 C 505.876 104.390 508.513 96.752 508.449 85.500 C 508.404 77.464 508.041 75.725 505.055 69.259 C 501.514 61.589 494.456 53.839 487.942 50.469 C 479.625 46.166 466.670 44.815 458.500 47.399 M 477.137 71.571 C 484.279 75.264 487.303 87.320 482.761 93.994 C 481.518 95.821 479.296 98.208 477.824 99.298 C 474.842 101.507 464.205 103.096 465.406 101.153 C 465.855 100.426 465.546 100.237 464.542 100.622 C 462.366 101.457 456.626 96.839 454.641 92.655 C 449.289 81.378 458.912 67.813 470.965 69.645 C 472.871 69.934 475.648 70.801 477.137 71.571 "/></g>
<g fill="#003468FE">
<path d="M 324.315 125.700 C 324.881 126.616 315.483 127.792 301.000 128.616 C 298.525 128.757 296.950 128.922 297.500 128.982 C 298.050 129.042 293.371 130.406 287.101 132.012 C 280.832 133.619 275.250 134.654 274.697 134.312 C 274.144 133.971 273.971 134.144 274.313 134.697 C 274.658 135.255 273.094 136.254 270.802 136.941 C 262.567 139.409 245.812 147.125 235.768 153.077 C 220.322 162.229 207.824 172.013 194.449 185.420 C 165.595 214.343 147.126 247.422 137.103 288.136 C 133.970 300.861 131.000 318.985 131.000 325.378 C 131.000 327.370 130.663 328.999 130.250 328.999 C 129.189 328.997 129.935 366.077 131.034 367.953 C 131.700 369.091 131.951 368.575 131.985 366.000 C 132.011 364.075 132.973 358.225 134.123 353.000 C 135.273 347.775 136.330 341.700 136.472 339.500 C 136.613 337.300 136.843 335.275 136.983 335.000 C 137.123 334.725 137.157 334.083 137.059 333.573 C 136.764 332.031 139.287 318.954 139.784 319.451 C 140.038 319.704 140.383 318.244 140.551 316.206 C 141.339 306.650 152.349 276.470 160.680 261.028 C 171.922 240.189 183.930 224.185 200.145 208.428 C 228.764 180.616 261.180 164.195 297.835 158.940 C 308.734 157.378 342.021 158.294 351.000 160.403 C 361.837 162.949 370.492 165.662 377.161 168.604 C 407.726 182.089 432.386 208.214 441.934 237.226 C 443.151 240.926 443.820 244.483 443.419 245.131 C 442.993 245.821 443.120 246.044 443.726 245.670 C 446.870 243.726 448.721 281.971 446.089 294.500 C 442.802 310.149 437.281 323.690 429.225 335.867 C 424.283 343.337 413.029 355.129 405.101 361.144 C 401.581 363.815 398.997 366.000 399.358 366.000 C 399.718 366.000 404.151 364.364 409.207 362.364 C 431.675 353.480 447.990 340.297 460.701 320.758 C 463.297 316.768 465.987 313.793 467.293 313.470 C 468.507 313.169 488.994 313.053 512.821 313.212 C 554.866 313.492 556.175 313.559 557.254 315.489 C 557.866 316.583 560.422 319.691 562.933 322.395 C 572.197 332.370 587.721 336.169 600.762 331.654 C 608.163 329.090 615.933 321.721 619.595 313.791 C 622.122 308.318 622.500 306.327 622.500 298.479 C 622.500 290.304 622.192 288.832 619.219 282.794 C 612.838 269.831 601.790 262.999 587.212 263.001 C 580.768 263.001 578.514 263.476 573.500 265.884 C 570.200 267.470 565.494 270.845 563.042 273.384 L 558.584 278.000 518.414 278.000 C 484.465 278.000 478.058 277.775 477.036 276.544 C 476.372 275.743 476.103 274.642 476.440 274.097 C 477.693 272.069 477.024 246.290 475.491 237.500 C 474.627 232.550 472.345 223.875 470.418 218.222 C 468.492 212.569 467.187 207.507 467.517 206.972 C 467.877 206.389 477.098 206.000 490.539 206.000 L 512.959 206.000 514.893 209.790 C 515.956 211.874 518.622 215.430 520.816 217.691 C 532.160 229.380 549.423 232.948 564.729 226.765 C 572.328 223.696 576.649 220.148 581.401 213.077 C 586.517 205.462 588.331 198.519 587.807 188.546 C 587.029 173.728 579.261 162.001 566.000 155.625 C 559.933 152.708 558.767 152.500 548.500 152.500 C 534.811 152.500 530.562 154.289 520.744 164.188 L 513.987 171.000 478.027 171.000 L 442.066 171.000 434.783 164.416 C 416.453 147.846 389.636 134.393 366.000 129.911 C 362.425 129.233 359.275 128.414 359.000 128.089 C 358.725 127.765 357.038 127.475 355.250 127.444 C 341.836 127.215 337.608 126.809 339.500 125.932 C 341.108 125.187 340.911 125.099 338.500 125.484 C 333.080 126.350 326.406 126.369 325.036 125.522 C 324.204 125.008 323.929 125.076 324.315 125.700 M 557.010 177.250 C 562.638 181.080 564.500 184.455 564.500 190.823 C 564.500 195.170 563.953 197.267 562.166 199.773 C 559.459 203.568 553.308 207.010 549.290 206.978 C 545.885 206.951 537.417 203.249 538.434 202.232 C 538.837 201.830 538.620 201.500 537.952 201.500 C 536.030 201.500 533.000 194.902 533.000 190.716 C 533.000 186.186 534.779 182.463 538.661 178.875 C 542.201 175.601 543.368 175.177 549.102 175.079 C 552.325 175.024 554.695 175.674 557.010 177.250 M 594.580 285.886 C 598.959 288.556 601.341 294.096 600.751 300.236 C 600.364 304.272 599.597 305.870 596.621 308.846 C 593.317 312.150 592.449 312.500 587.564 312.500 C 583.190 312.500 581.645 312.024 579.452 310.000 C 572.044 303.165 572.297 293.135 580.041 286.619 C 583.851 283.413 590.015 283.102 594.580 285.886 "/></g>
<g fill="#003468FE">
<path d="M 312.500 253.544 C 304.159 255.634 298.000 258.080 298.000 259.303 C 298.000 259.869 297.720 260.054 297.378 259.712 C 296.442 258.775 288.243 263.214 281.377 268.376 C 250.305 291.733 232.617 336.974 236.958 381.984 C 239.842 411.885 251.410 441.422 269.473 465.006 C 274.701 471.832 292.796 491.000 294.011 491.000 C 294.401 491.000 296.427 492.610 298.513 494.577 C 304.288 500.023 329.000 516.218 329.000 514.556 C 329.000 514.207 329.887 514.748 330.970 515.758 C 336.466 520.877 368.518 531.951 388.500 535.633 C 401.097 537.954 441.127 538.281 453.000 536.160 C 463.855 534.221 478.818 530.380 487.212 527.378 C 499.243 523.076 527.692 508.247 524.500 507.942 C 523.950 507.890 524.228 507.705 525.117 507.531 C 527.463 507.074 539.071 498.436 540.384 496.171 C 540.998 495.112 544.112 491.152 547.304 487.372 C 550.496 483.593 555.347 477.205 558.083 473.177 L 563.059 465.853 555.780 472.008 C 534.467 490.025 509.558 502.170 482.000 507.981 C 428.366 519.290 368.906 504.230 326.068 468.485 C 301.234 447.763 285.844 424.098 278.302 395.037 C 274.966 382.184 274.037 358.690 276.343 345.489 C 277.947 336.307 282.729 320.043 282.220 325.500 C 280.790 340.846 280.918 358.857 282.520 367.794 C 289.232 405.229 312.659 436.420 347.907 454.853 C 374.734 468.882 400.761 475.018 433.284 474.982 C 475.203 474.934 511.528 463.196 538.887 440.856 C 544.764 436.057 544.346 436.116 532.000 441.834 C 520.789 447.026 508.983 451.207 507.327 450.572 C 506.597 450.292 506.000 450.450 506.000 450.924 C 506.000 452.113 492.364 455.354 490.449 454.619 C 489.595 454.291 489.136 454.411 489.429 454.885 C 491.294 457.903 446.633 459.566 430.500 457.079 C 380.143 449.319 335.853 421.471 317.612 386.100 C 312.644 376.466 308.631 365.404 309.388 363.431 C 309.663 362.715 309.366 361.955 308.728 361.743 C 306.719 361.073 306.508 335.794 308.443 327.528 C 312.589 309.809 323.080 296.095 337.699 289.281 C 344.278 286.214 346.847 285.576 354.098 285.207 C 367.280 284.537 376.511 287.678 387.383 296.534 C 390.540 299.106 393.385 300.948 393.706 300.627 C 394.496 299.837 391.357 291.720 387.662 285.000 C 383.588 277.590 370.019 264.290 362.500 260.337 C 351.444 254.525 344.698 252.829 331.000 252.416 C 322.102 252.148 316.771 252.473 312.500 253.544 "/></g>
<g fill="#0294B7FE">
<path d="M 279.615 334.399 C 280.057 336.293 279.933 337.077 279.257 336.659 C 275.531 334.356 274.087 374.622 277.346 389.953 C 286.094 431.106 314.281 466.266 357.000 489.312 C 415.640 520.947 488.863 518.405 541.250 482.914 C 546.063 479.654 550.056 477.214 550.125 477.493 C 550.194 477.772 550.306 477.611 550.375 477.136 C 550.444 476.661 553.338 473.900 556.806 471.002 L 563.113 465.733 559.877 470.616 C 555.433 477.324 544.713 491.087 542.126 493.405 C 540.957 494.453 540.012 495.803 540.027 496.405 C 540.042 497.007 541.410 495.925 543.067 494.000 C 551.865 483.779 567.506 461.958 564.883 463.564 C 564.122 464.030 564.706 462.971 566.181 461.211 C 567.655 459.451 569.148 457.108 569.498 456.005 C 569.848 454.902 570.581 454.000 571.126 454.000 C 571.672 454.000 571.840 453.550 571.500 453.000 C 571.160 452.450 571.328 452.000 571.874 452.000 C 572.419 452.000 573.180 451.008 573.565 449.797 C 573.949 448.585 574.884 446.974 575.641 446.216 C 576.399 445.459 576.763 444.425 576.450 443.919 C 576.138 443.414 576.328 443.000 576.874 443.000 C 577.868 443.000 579.570 439.157 579.198 437.750 C 579.089 437.338 579.401 437.000 579.892 437.000 C 580.745 437.000 582.135 433.116 581.706 431.929 C 581.593 431.614 582.310 430.548 583.299 429.558 C 584.289 428.569 585.359 426.454 585.678 424.859 C 585.997 423.264 586.650 421.716 587.129 421.420 C 587.608 421.124 588.000 419.993 588.000 418.906 C 588.000 417.819 588.627 415.933 589.394 414.715 C 590.161 413.497 592.202 407.325 593.931 401.000 C 595.659 394.675 597.325 388.674 597.631 387.664 C 598.115 386.072 597.911 385.977 596.095 386.949 C 594.943 387.566 594.000 388.744 594.000 389.567 C 594.000 390.389 593.328 391.321 592.506 391.636 C 591.684 391.952 591.260 392.612 591.565 393.105 C 591.869 393.597 591.627 394.000 591.028 394.000 C 590.428 394.000 589.638 394.788 589.271 395.750 C 588.905 396.713 587.119 398.820 585.303 400.434 C 583.486 402.048 582.000 403.767 582.000 404.255 C 582.000 405.225 578.842 408.655 578.321 408.250 C 578.145 408.113 577.934 408.338 577.853 408.750 C 577.773 409.163 576.408 410.290 574.820 411.256 C 573.232 412.221 571.675 413.684 571.359 414.506 C 571.044 415.328 570.133 416.000 569.334 416.000 C 568.535 416.000 568.160 416.450 568.500 417.000 C 568.840 417.550 568.516 418.000 567.781 418.000 C 567.046 418.000 565.685 418.788 564.757 419.750 C 561.068 423.576 559.280 425.000 558.166 425.000 C 557.525 425.000 557.000 425.450 557.000 426.000 C 557.000 426.550 556.663 426.888 556.250 426.750 C 555.838 426.613 554.375 427.535 553.000 428.801 C 544.533 436.594 544.547 436.583 546.557 434.132 C 548.395 431.892 548.243 431.918 543.742 434.629 C 541.125 436.205 539.453 437.651 540.026 437.842 C 540.599 438.033 541.840 437.598 542.784 436.875 C 543.728 436.152 543.397 436.797 542.049 438.309 C 538.401 442.399 523.593 452.243 513.437 457.330 C 472.347 477.910 419.453 481.195 373.814 466.002 C 315.458 446.575 280.867 402.461 280.867 347.467 C 280.867 340.281 280.433 333.749 279.903 332.951 C 279.233 331.943 279.145 332.384 279.615 334.399 "/></g>
<g fill="#0294B7FE">
<path d="M 576.500 263.188 C 571.106 265.241 564.254 269.979 561.549 273.524 L 558.898 277.000 518.199 277.238 L 477.500 277.477 517.957 277.750 L 558.414 278.023 563.457 273.067 C 570.732 265.916 577.569 263.022 587.212 263.010 C 601.490 262.992 612.745 269.799 618.942 282.201 C 620.624 285.566 622.000 287.783 622.000 287.126 C 622.000 284.247 616.792 276.079 612.242 271.823 C 604.296 264.390 600.073 262.666 589.000 262.332 C 583.559 262.169 578.218 262.534 576.500 263.188 "/></g>
<g fill="#0294B7FE">
<path d="M 549.500 151.866 C 557.814 152.408 560.596 153.044 566.000 155.634 C 574.286 159.606 580.454 165.766 584.392 174.000 C 587.261 179.999 587.500 181.310 587.500 191.021 C 587.500 200.852 587.289 201.972 584.277 208.088 C 580.903 214.942 574.593 222.059 569.500 224.755 C 567.850 225.628 564.025 227.178 561.000 228.198 C 556.253 229.799 556.040 229.970 559.445 229.445 C 570.880 227.681 582.664 216.870 586.919 204.240 C 590.719 192.961 588.920 177.541 582.755 168.540 C 579.223 163.384 572.287 157.467 566.258 154.468 C 561.142 151.924 559.328 151.582 550.000 151.409 L 539.500 151.213 549.500 151.866 "/></g>
<g fill="#0294B7FE">
<path d="M 319.069 388.978 C 326.216 402.388 342.346 419.104 358.309 429.646 C 373.233 439.501 397.088 450.211 409.000 452.403 C 410.925 452.758 407.172 451.246 400.660 449.045 C 362.979 436.306 332.334 412.849 318.624 386.250 C 317.702 384.463 316.709 383.000 316.416 383.000 C 316.123 383.000 317.317 385.690 319.069 388.978 "/></g>
<g fill="#0294B7FE">
<path d="M 236.500 151.471 C 211.844 165.636 187.430 187.994 170.742 211.693 C 164.805 220.125 156.828 233.161 157.310 233.643 C 157.556 233.889 159.881 230.467 162.478 226.038 C 170.360 212.593 181.741 198.134 194.438 185.436 C 207.900 171.971 218.545 163.527 233.750 154.252 C 246.004 146.778 247.758 145.003 236.500 151.471 "/></g>
<g fill="#0294B7FE">
<path d="M 186.856 94.195 C 175.923 101.814 175.467 102.172 163.994 112.153 C 148.869 125.310 123.854 153.329 120.500 160.870 C 119.950 162.106 121.643 160.191 124.262 156.613 C 141.768 132.699 164.711 110.478 189.565 93.365 C 193.451 90.689 196.713 88.191 196.815 87.813 C 196.917 87.434 192.435 90.306 186.856 94.195 "/></g>
<g fill="#0294B7FE">
<path d="M 527.500 157.005 C 525.850 157.938 522.250 161.132 519.500 164.101 L 514.500 169.500 480.500 170.020 L 446.500 170.540 480.244 170.770 L 513.987 171.000 520.799 164.250 C 524.545 160.538 528.261 157.007 529.055 156.404 C 529.850 155.801 529.150 156.071 527.500 157.005 "/></g>
<g fill="#0294B7FE">
<path d="M 262.000 58.465 C 255.675 60.319 246.675 63.233 242.000 64.940 C 232.442 68.431 204.830 81.992 201.000 85.076 C 199.625 86.183 201.425 85.456 205.000 83.460 C 224.109 72.794 244.897 64.198 265.388 58.490 C 272.050 56.635 276.600 55.112 275.500 55.105 C 274.400 55.099 268.325 56.611 262.000 58.465 "/></g>
<g fill="#0294B7FE">
<path d="M 231.236 183.688 C 218.013 192.098 207.786 200.493 195.857 212.729 C 186.587 222.238 173.246 238.664 172.698 241.244 C 172.589 241.755 175.289 238.378 178.698 233.739 C 191.788 215.928 212.888 196.200 231.004 184.835 C 235.682 181.901 239.704 179.134 239.942 178.688 C 240.180 178.241 236.263 180.491 231.236 183.688 "/></g>
<g fill="#0294B7FE">
<path d="M 110.568 293.368 C 109.397 305.961 110.599 343.937 112.440 352.500 C 114.076 360.114 113.995 358.438 111.881 341.000 C 111.314 336.325 110.973 321.700 111.122 308.500 C 111.320 290.936 111.172 286.878 110.568 293.368 "/></g>
<g fill="#0294B7FE">
<path d="M 492.137 206.749 L 512.774 207.040 514.050 210.121 C 516.813 216.791 529.320 227.015 536.500 228.472 C 538.369 228.851 537.688 228.340 534.692 227.115 C 526.184 223.636 518.936 217.262 514.950 209.750 L 512.959 206.000 492.230 206.229 L 471.500 206.457 492.137 206.749 "/></g>
<g fill="#0294B7FE">
<path d="M 160.052 169.142 C 151.048 180.399 141.997 194.385 135.516 207.056 C 132.482 212.987 130.008 218.213 130.018 218.670 C 130.028 219.126 132.875 214.092 136.345 207.482 C 143.833 193.218 153.870 177.845 162.078 168.070 C 165.342 164.181 167.673 161.018 167.257 161.040 C 166.841 161.063 163.598 164.708 160.052 169.142 "/></g>
<g fill="#0294B7FE">
<path d="M 245.498 104.314 C 239.997 106.664 231.897 110.560 227.498 112.972 C 217.882 118.245 200.626 129.536 198.806 131.746 C 198.088 132.618 201.775 130.377 207.000 126.766 C 219.590 118.065 235.349 109.385 247.391 104.518 C 252.776 102.342 256.804 100.444 256.341 100.301 C 255.879 100.158 250.999 101.964 245.498 104.314 "/></g>
<g fill="#0294B7FE">
<path d="M 542.445 175.959 C 539.613 177.106 534.165 183.496 533.391 186.579 C 532.392 190.560 533.583 196.606 536.050 200.070 C 538.549 203.579 544.998 206.944 549.290 206.978 C 552.592 207.004 559.049 203.899 561.050 201.323 C 562.389 199.599 562.358 199.589 560.483 201.129 C 557.259 203.778 552.282 206.000 549.570 206.000 C 545.374 206.000 539.104 202.955 536.886 199.839 C 532.749 194.030 533.478 184.718 538.434 180.062 C 539.741 178.834 542.541 177.213 544.655 176.459 C 546.770 175.705 547.600 175.097 546.500 175.107 C 545.400 175.118 543.575 175.501 542.445 175.959 "/></g>
<g fill="#0294B7FE">
<path d="M 434.016 326.261 C 426.128 340.555 414.347 353.712 401.105 363.014 C 396.006 366.596 395.254 367.435 397.373 367.177 C 398.890 366.992 399.753 366.410 399.388 365.820 C 398.978 365.155 399.597 365.026 401.125 365.458 C 402.730 365.913 403.065 365.829 402.158 365.199 C 401.122 364.481 401.579 363.734 404.158 361.931 C 409.395 358.269 420.807 347.050 425.448 341.000 C 429.990 335.078 437.315 322.982 436.720 322.386 C 436.519 322.186 435.303 323.930 434.016 326.261 "/></g>
<g fill="#0294B7FE">
<path d="M 491.000 454.076 C 483.644 455.686 477.156 456.423 453.000 458.391 C 450.525 458.593 454.494 458.575 461.819 458.350 C 474.051 457.976 493.211 455.378 500.500 453.107 C 505.583 451.523 500.124 452.080 491.000 454.076 "/></g>
<g fill="#0294B7FE">
<path d="M 460.417 321.350 C 451.131 335.338 439.440 346.512 425.485 354.739 L 419.106 358.500 425.176 355.500 C 437.908 349.207 457.108 330.530 462.642 319.055 C 463.819 316.612 463.005 317.453 460.417 321.350 "/></g>
<g fill="#0294B7FE">
<path d="M 457.525 46.665 C 450.530 48.812 442.410 54.491 438.137 60.227 C 436.137 62.913 434.950 64.593 435.500 63.961 C 441.486 57.086 447.360 52.253 452.938 49.616 C 458.668 46.907 460.578 46.513 468.000 46.507 C 472.675 46.503 478.075 46.820 480.000 47.211 C 483.298 47.881 483.270 47.842 479.500 46.538 C 474.208 44.707 463.711 44.768 457.525 46.665 "/></g>
<g fill="#0294B7FE">
<path d="M 468.590 212.500 C 468.928 213.600 470.017 216.809 471.008 219.632 C 473.760 227.464 476.106 238.987 477.039 249.242 L 477.881 258.500 477.485 248.500 C 477.059 237.744 473.657 222.306 470.072 214.858 C 468.919 212.461 468.251 211.400 468.590 212.500 "/></g>
<g fill="#0294B7FE">
<path d="M 453.399 86.708 C 453.757 92.940 457.023 97.834 462.585 100.473 C 467.128 102.629 474.065 102.082 477.864 99.268 C 481.381 96.664 485.010 91.205 484.956 88.602 C 484.928 87.243 484.431 87.848 483.551 90.316 C 481.136 97.089 475.785 101.000 468.933 101.000 C 461.221 101.000 455.330 95.377 453.932 86.680 L 453.099 81.500 453.399 86.708 "/></g>
<g fill="#0294B7FE">
<path d="M 580.041 286.619 C 575.921 290.086 573.974 294.057 574.118 298.700 L 574.235 302.500 575.017 297.872 C 576.051 291.756 577.470 289.294 581.314 286.950 C 585.240 284.556 590.741 284.443 594.027 286.690 C 596.835 288.608 597.998 290.217 599.674 294.500 C 600.320 296.150 600.882 296.893 600.924 296.151 C 600.966 295.409 600.249 293.219 599.330 291.283 C 595.865 283.980 586.009 281.597 580.041 286.619 "/></g>
<g fill="#0294B7FE">
<path d="M 393.500 177.643 C 394.050 178.198 396.975 180.403 400.000 182.541 C 408.330 188.431 418.609 198.584 425.268 207.500 C 432.002 216.518 433.543 217.547 427.608 209.064 C 422.876 202.301 410.319 189.289 403.500 184.082 C 398.256 180.078 391.786 175.912 393.500 177.643 "/></g>
<g fill="#0294B7FE">
<path d="M 300.500 128.143 C 294.450 129.153 288.600 130.446 287.500 131.016 C 285.711 131.943 285.764 131.996 288.000 131.518 C 295.564 129.902 308.603 127.880 316.500 127.100 L 325.500 126.210 318.500 126.259 C 314.650 126.286 306.550 127.134 300.500 128.143 "/></g>
<g fill="#0294B7FE">
<path d="M 272.000 135.406 C 261.152 139.148 252.401 142.760 249.527 144.681 C 246.408 146.767 248.190 146.242 255.543 142.908 C 259.294 141.207 267.569 138.064 273.932 135.922 C 280.294 133.781 284.600 132.052 283.500 132.079 C 282.400 132.107 277.225 133.604 272.000 135.406 "/></g>
<g fill="#0294B7FE">
<path d="M 309.432 323.151 C 308.220 326.953 307.654 332.693 307.474 343.000 L 307.220 357.500 307.980 343.000 C 308.422 334.568 309.407 326.427 310.333 323.547 C 311.210 320.822 311.749 318.415 311.531 318.198 C 311.314 317.981 310.369 320.210 309.432 323.151 "/></g>
<g fill="#0294B7FE">
<path d="M 622.201 307.000 C 622.090 307.825 620.716 311.210 619.149 314.522 C 615.827 321.545 608.096 329.047 601.725 331.431 C 598.778 332.534 598.408 332.840 600.500 332.445 C 609.219 330.798 621.755 317.199 622.216 308.888 C 622.319 307.025 622.312 306.175 622.201 307.000 "/></g>
<g fill="#0294B7FE">
<path d="M 399.083 56.386 C 399.313 56.599 404.000 57.931 409.500 59.346 C 415.000 60.762 422.161 62.839 425.414 63.963 C 428.667 65.086 431.544 65.790 431.807 65.526 C 432.071 65.263 431.434 64.769 430.393 64.430 C 429.352 64.090 427.375 63.417 426.000 62.933 C 416.997 59.764 397.652 55.060 399.083 56.386 "/></g>
<g fill="#0294B7FE">
<path d="M 334.884 290.497 C 326.009 295.121 315.015 307.385 312.470 315.500 C 312.125 316.600 313.341 314.814 315.171 311.532 C 319.638 303.523 328.205 294.953 335.513 291.184 C 338.806 289.486 341.050 288.096 340.500 288.095 C 339.950 288.094 337.423 289.175 334.884 290.497 "/></g>
<g fill="#0294B7FE">
<path d="M 163.830 255.313 C 159.122 263.309 150.865 281.055 151.273 282.302 C 151.417 282.744 153.026 279.594 154.847 275.302 C 156.669 271.011 160.428 263.368 163.200 258.317 C 169.300 247.203 169.684 245.371 163.830 255.313 "/></g>
<g fill="#0294B7FE">
<path d="M 464.500 70.072 C 460.008 71.499 453.993 77.460 454.004 80.473 C 454.006 81.038 454.841 80.150 455.861 78.500 C 461.132 69.967 470.713 68.153 479.174 74.088 C 481.498 75.719 482.070 75.887 481.073 74.645 C 477.843 70.624 469.770 68.397 464.500 70.072 "/></g>
<g fill="#0294B7FE">
<path d="M 417.383 454.520 C 424.219 456.397 438.913 458.286 442.500 457.749 C 444.762 457.410 444.372 457.263 440.919 457.150 C 438.400 457.067 431.425 456.107 425.419 455.015 C 412.940 452.747 410.344 452.587 417.383 454.520 "/></g>
<g fill="#0294B7FE">
<path d="M 599.698 302.641 C 598.433 307.546 592.635 312.000 587.516 312.000 C 583.647 312.000 579.172 309.330 576.960 305.701 C 575.886 303.941 575.006 303.069 575.004 303.765 C 575.002 304.460 576.540 306.710 578.423 308.765 C 581.590 312.220 582.263 312.500 587.406 312.500 C 592.443 312.500 593.301 312.165 596.518 308.949 C 598.737 306.729 600.150 304.298 600.285 302.465 L 600.500 299.533 599.698 302.641 "/></g>
<g fill="#0294B7FE">
<path d="M 385.591 135.402 C 390.591 137.218 397.341 140.000 400.591 141.584 C 403.841 143.167 406.950 144.463 407.500 144.463 C 409.241 144.463 391.769 136.350 385.246 134.129 C 375.293 130.741 375.570 131.762 385.591 135.402 "/></g>
<g fill="#0294B7FE">
<path d="M 409.000 145.237 C 409.275 145.539 413.550 148.490 418.500 151.793 C 423.450 155.096 430.538 160.584 434.250 163.988 C 437.963 167.392 441.000 169.922 441.000 169.609 C 441.000 167.688 420.444 151.264 412.709 147.005 C 410.394 145.730 408.725 144.935 409.000 145.237 "/></g>
<g fill="#0294B7FE">
<path d="M 326.104 125.416 C 326.436 125.759 331.386 126.252 337.104 126.511 C 342.822 126.769 349.975 127.191 353.000 127.448 C 357.860 127.861 358.035 127.817 354.500 127.069 C 349.394 125.989 325.302 124.586 326.104 125.416 "/></g>
<g fill="#0294B7FE">
<path d="M 505.267 69.750 C 508.107 75.813 508.442 77.517 508.562 86.500 C 508.668 94.492 508.847 95.626 509.453 92.146 C 510.626 85.408 509.193 75.915 505.975 69.110 C 504.385 65.750 502.864 63.000 502.595 63.000 C 502.326 63.000 503.528 66.038 505.267 69.750 "/></g>
<g fill="#0294B7FE">
<path d="M 328.002 48.657 C 328.004 49.121 334.625 49.634 342.716 49.797 C 350.807 49.960 357.219 49.903 356.964 49.669 C 356.035 48.818 328.000 47.838 328.002 48.657 "/></g>
<g fill="#0294B7FE">
<path d="M 190.000 138.821 C 183.534 144.159 167.852 159.185 168.289 159.623 C 168.416 159.749 173.690 154.992 180.009 149.051 C 196.799 133.269 197.107 132.953 190.000 138.821 "/></g>
<g fill="#0294B7FE">
<path d="M 505.696 101.724 C 503.441 107.996 496.165 116.291 489.630 120.039 C 486.809 121.657 484.974 122.985 485.554 122.991 C 487.640 123.009 495.585 117.231 499.799 112.632 C 503.895 108.160 508.409 99.728 507.756 97.768 C 507.587 97.262 506.661 99.042 505.696 101.724 "/></g>
<g fill="#0294B7FE">
<path d="M 275.500 93.916 C 263.539 97.451 257.541 99.497 259.500 99.375 C 262.442 99.192 285.851 92.132 283.500 92.138 C 282.400 92.140 278.800 92.940 275.500 93.916 "/></g>
<g fill="#0294B7FE">
<path d="M 114.806 169.241 C 109.623 177.131 102.865 189.198 103.355 189.688 C 103.580 189.914 105.683 186.589 108.027 182.299 C 110.371 178.010 113.554 172.648 115.100 170.385 C 116.645 168.122 118.043 165.674 118.205 164.945 C 118.367 164.215 116.838 166.148 114.806 169.241 "/></g>
<g fill="#0294B7FE">
<path d="M 556.000 314.433 C 556.000 315.665 560.476 321.395 564.293 325.050 C 567.668 328.282 576.036 333.032 578.217 332.954 C 578.923 332.929 576.800 331.636 573.500 330.080 C 567.883 327.432 561.445 321.726 557.648 316.027 C 556.742 314.668 556.000 313.950 556.000 314.433 "/></g>
<g fill="#0294B7FE">
<path d="M 86.081 230.372 C 83.836 237.270 82.024 243.496 82.053 244.207 C 82.083 244.918 84.085 239.440 86.504 232.033 C 88.922 224.627 90.734 218.401 90.531 218.198 C 90.328 217.994 88.325 223.473 86.081 230.372 "/></g>
<g fill="#0294B7FE">
<path d="M 98.537 198.712 C 93.930 208.355 90.800 216.134 91.319 216.652 C 91.535 216.868 92.518 214.897 93.503 212.272 C 94.489 209.648 97.057 203.966 99.211 199.647 C 101.364 195.327 102.931 191.598 102.692 191.359 C 102.453 191.120 100.583 194.429 98.537 198.712 "/></g>
<g fill="#0294B7FE">
<path d="M 261.000 168.223 C 255.662 170.597 241.773 177.436 244.557 176.319 C 262.116 169.276 266.183 167.478 264.947 167.309 C 264.151 167.200 262.375 167.611 261.000 168.223 "/></g>
<g fill="#0294B7FE">
<path d="M 305.000 50.014 C 302.525 50.407 306.350 50.502 313.500 50.226 C 320.650 49.950 326.688 49.561 326.917 49.362 C 327.640 48.734 309.705 49.268 305.000 50.014 "/></g>
<g fill="#0294B7FE">
<path d="M 446.099 286.500 C 446.025 288.150 445.340 292.425 444.576 296.000 C 441.794 309.017 441.808 308.913 443.353 304.980 C 445.225 300.216 447.355 287.934 446.734 285.484 C 446.377 284.072 446.194 284.365 446.099 286.500 "/></g>
<g fill="#0294B7FE">
<path d="M 144.363 261.000 C 141.674 267.918 137.981 279.843 138.059 281.355 C 138.124 282.635 146.010 259.358 146.309 257.000 C 146.414 256.175 145.538 257.975 144.363 261.000 "/></g>
<g fill="#0294B7FE">
<path d="M 441.070 236.685 C 441.032 237.337 441.496 239.137 442.103 240.685 C 442.710 242.233 444.017 247.775 445.009 253.000 C 446.000 258.225 446.854 261.527 446.906 260.338 C 447.043 257.180 444.372 244.140 442.637 239.500 C 441.814 237.300 441.109 236.033 441.070 236.685 "/></g>
<g fill="#0294B7FE">
<path d="M 478.000 124.200 C 476.075 124.761 470.900 125.008 466.500 124.750 C 462.100 124.491 459.625 124.622 461.000 125.040 C 464.996 126.256 476.145 125.963 480.500 124.528 C 485.193 122.981 483.117 122.709 478.000 124.200 "/></g>
<g fill="#0294B7FE">
<path d="M 431.206 104.820 C 432.145 105.194 435.253 108.127 438.114 111.337 C 440.974 114.547 445.035 118.259 447.137 119.587 C 452.919 123.236 453.182 122.477 447.469 118.630 C 444.717 116.777 440.301 112.727 437.655 109.630 C 435.010 106.534 432.093 104.032 431.173 104.070 C 429.638 104.135 429.640 104.197 431.206 104.820 "/></g>
<g fill="#0294B7FE">
<path d="M 114.557 363.500 C 115.255 368.531 119.118 383.216 119.612 382.721 C 119.815 382.518 118.636 377.211 116.991 370.926 C 115.347 364.642 114.251 361.300 114.557 363.500 "/></g>
<g fill="#0294B7FE">
<path d="M 120.050 384.675 C 120.022 385.321 121.688 390.482 123.750 396.143 C 125.813 401.804 127.434 405.550 127.353 404.468 C 127.177 402.109 120.122 382.988 120.050 384.675 "/></g>
<g fill="#0294B7FE">
<path d="M 148.373 289.000 C 145.002 297.824 142.760 305.093 143.256 305.590 C 143.711 306.045 150.401 286.430 150.449 284.500 C 150.463 283.950 149.529 285.975 148.373 289.000 "/></g>
<g fill="#0294B7FE">
<path d="M 386.000 54.031 C 391.225 55.118 396.175 55.867 397.000 55.695 C 398.579 55.366 388.651 53.421 381.000 52.560 C 378.525 52.282 380.775 52.944 386.000 54.031 "/></g>
<g fill="#0294B7FE">
<path d="M 151.653 244.358 C 148.988 249.738 146.994 254.327 147.222 254.556 C 147.451 254.784 149.632 250.382 152.069 244.774 L 156.500 234.576 151.653 244.358 "/></g>
<g fill="#0294B7FE">
<path d="M 285.500 52.752 C 281.100 53.604 277.950 54.449 278.500 54.628 C 279.050 54.807 284.000 54.107 289.500 53.071 C 295.000 52.036 298.150 51.191 296.500 51.195 C 294.850 51.199 289.900 51.899 285.500 52.752 "/></g>
<g fill="#0294B7FE">
<path d="M 488.000 50.592 C 490.475 52.004 494.550 55.036 497.056 57.330 C 500.713 60.677 501.087 60.864 498.950 58.279 C 496.112 54.846 486.566 47.992 484.650 48.012 C 484.017 48.019 485.525 49.180 488.000 50.592 "/></g>
<g fill="#0294B7FE">
<path d="M 171.381 523.396 C 174.065 525.840 178.432 529.337 181.085 531.169 C 183.738 533.001 181.541 531.002 176.204 526.727 C 170.867 522.452 168.696 520.953 171.381 523.396 "/></g>
<g fill="#0294B7FE">
<path d="M 436.321 225.917 C 438.619 230.821 440.617 234.520 440.760 234.136 C 441.064 233.322 433.298 217.000 432.607 217.000 C 432.351 217.000 434.022 221.013 436.321 225.917 "/></g>
<g fill="#0294B7FE">
<path d="M 366.931 130.070 C 371.567 131.116 375.537 131.797 375.751 131.582 C 376.267 131.067 362.618 127.976 360.303 128.084 C 359.311 128.131 362.294 129.024 366.931 130.070 "/></g>
<g fill="#0294B7FE">
<path d="M 412.107 98.440 C 412.869 99.202 428.395 103.938 428.801 103.533 C 429.013 103.320 425.522 101.988 421.042 100.573 C 412.896 98.000 411.281 97.614 412.107 98.440 "/></g>
<g fill="#0294B7FE">
<path d="M 376.500 90.551 C 380.350 91.280 384.400 91.851 385.500 91.819 C 386.600 91.788 384.575 91.161 381.000 90.427 C 377.425 89.694 373.375 89.123 372.000 89.159 C 370.625 89.195 372.650 89.821 376.500 90.551 "/></g>
<g fill="#0294B7FE">
<path d="M 529.500 442.061 C 525.100 444.142 521.813 445.879 522.195 445.922 C 523.255 446.041 538.364 439.023 537.904 438.626 C 537.682 438.434 533.900 439.980 529.500 442.061 "/></g>
<g fill="#0294B7FE">
<path d="M 310.000 367.823 C 310.000 368.459 311.238 371.995 312.750 375.681 C 315.976 383.542 316.132 382.148 312.994 373.500 C 310.724 367.247 310.000 365.873 310.000 367.823 "/></g>
<g fill="#0294B7FE">
<path d="M 130.669 317.397 C 130.301 320.082 130.058 323.904 130.130 325.890 C 130.201 327.875 130.651 326.125 131.129 322.000 C 132.100 313.620 131.715 309.767 130.669 317.397 "/></g>
<g fill="#0294B7FE">
<path d="M 77.056 266.556 C 76.381 270.739 76.029 274.362 76.273 274.606 C 76.517 274.851 77.270 271.628 77.944 267.444 C 78.619 263.261 78.971 259.638 78.727 259.394 C 78.483 259.149 77.730 262.372 77.056 266.556 "/></g>
<g fill="#0294B7FE">
<path d="M 553.259 176.429 C 557.847 178.066 559.771 179.595 562.158 183.500 C 563.167 185.150 563.994 185.972 563.996 185.327 C 564.007 181.976 555.326 174.946 551.300 175.044 C 550.310 175.068 551.192 175.691 553.259 176.429 "/></g>
<g fill="#0294B7FE">
<path d="M 158.500 511.500 L 166.000 519.000 158.500 511.500 L 151.000 504.000 158.500 511.500 "/></g>
<g fill="#0294B7FE">
<path d="M 622.757 296.000 C 623.043 300.125 623.439 303.688 623.638 303.917 C 624.333 304.717 623.794 293.479 623.019 291.000 C 622.579 289.589 622.464 291.768 622.757 296.000 "/></g>
<g fill="#0294B7FE">
<path d="M 114.000 269.000 C 113.338 272.922 113.001 276.334 113.249 276.583 C 113.498 276.831 114.233 273.816 114.882 269.882 C 115.532 265.949 115.870 262.537 115.633 262.300 C 115.396 262.063 114.662 265.078 114.000 269.000 "/></g>
<g fill="#0294B7FE">
<path d="M 128.532 221.500 C 125.974 227.531 123.976 233.310 124.329 233.663 C 124.803 234.136 129.528 221.967 129.440 220.500 C 129.408 219.950 128.999 220.400 128.532 221.500 "/></g>
<g fill="#0294B7FE">
<path d="M 513.000 448.504 C 509.425 449.791 506.975 450.879 507.556 450.922 C 509.157 451.040 521.617 446.693 520.486 446.411 C 519.944 446.276 516.575 447.218 513.000 448.504 "/></g>
<g fill="#0294B7FE">
<path d="M 117.639 252.788 C 116.738 256.002 116.032 259.277 116.071 260.066 C 116.110 260.855 117.025 258.402 118.104 254.616 C 119.183 250.830 119.889 247.556 119.672 247.339 C 119.456 247.123 118.541 249.575 117.639 252.788 "/></g>
<g fill="#0294B7FE">
<path d="M 373.433 168.011 C 377.246 169.637 380.520 170.814 380.708 170.625 C 381.176 170.158 369.162 164.993 367.684 165.027 C 367.033 165.042 369.620 166.385 373.433 168.011 "/></g>
<g fill="#0294B7FE">
<path d="M 439.476 314.174 C 436.779 321.453 436.985 322.688 439.809 316.177 C 441.079 313.250 441.968 310.403 441.784 309.852 C 441.600 309.300 440.562 311.245 439.476 314.174 "/></g>
<g fill="#0294B7FE">
<path d="M 284.000 161.500 C 277.986 163.242 281.058 163.275 288.000 161.543 C 291.025 160.788 292.375 160.176 291.000 160.183 C 289.625 160.190 286.475 160.783 284.000 161.500 "/></g>
<g fill="#0294B7FE">
<path d="M 564.075 190.500 C 563.931 192.700 563.523 195.625 563.169 197.000 C 562.663 198.962 562.801 198.867 563.811 196.556 C 564.519 194.938 564.926 192.013 564.717 190.056 L 564.336 186.500 564.075 190.500 "/></g>
<g fill="#0294B7FE">
<path d="M 107.812 447.500 C 108.929 449.700 110.582 452.400 111.485 453.500 C 112.387 454.600 111.899 453.250 110.398 450.500 C 107.041 444.345 105.017 441.998 107.812 447.500 "/></g>
<g fill="#0294B7FE">
<path d="M 132.500 305.000 C 132.112 307.820 132.006 310.339 132.264 310.597 C 132.522 310.856 133.041 308.749 133.417 305.917 C 133.792 303.084 133.899 300.565 133.653 300.319 C 133.407 300.073 132.888 302.180 132.500 305.000 "/></g>
<g fill="#0294B7FE">
<path d="M 121.612 239.624 C 120.726 242.227 120.033 244.839 120.073 245.428 C 120.113 246.018 121.012 244.061 122.070 241.080 C 123.128 238.099 123.821 235.487 123.609 235.276 C 123.398 235.065 122.499 237.021 121.612 239.624 "/></g>
<g fill="#0294B7FE">
<path d="M 358.000 50.095 C 358.000 50.593 360.100 51.000 362.667 51.000 C 365.233 51.000 367.146 50.837 366.917 50.638 C 365.909 49.761 358.000 49.280 358.000 50.095 "/></g>
</svg>
